<svg xmlns="http://www.w3.org/2000/svg" width="80" height="81" fill="none" viewBox="0 0 80 81">
	<path fill="#fff" d="M45.1 8c0 4.1-3.3 7.4-7.4 7.4-4.2 0-7.5-3.4-7.4-7.6 0-4.1 3.4-7.2 7.5-7.2s7.4 3.3 7.3 7.4zM26.2 41.9c0-1.5-.1-3.1 0-4.7 0-.3.5-.8.9-.9 4.7-1.8 9.5-2.1 14.3-.8 10.4 2.7 17 12.5 16.5 22.4-.5 10.7-8 19.3-18.5 21.3-8.8 1.6-18-2.4-22.9-10.1-4.8-7.6-4.7-17.6.2-24.4 1.4.9 2.7 1.8 4.1 2.7-2.7 4.2-3.6 8.9-2.3 14.1 1 4 3.2 7.2 6.5 9.6 6.7 4.9 15.8 4.5 22-1.1 6.2-5.6 7.6-14.6 3.4-21.8-1.2-2-2.7-3.9-4.7-5.1-1.9-1.2-4-2.4-6.1-2.9-2.2-.5-4.6-.6-6.9-.3-2 .3-4.2 1.3-6.5 2z"/>
	<path fill="#fff" d="M44.6 35.4c-4.7-1.9-9.4-2.3-14.4-1.2v-6.6c-.1-.1-.2-.1-.3-.2-1.6 1.6-3.3 3.1-4.6 5-.6.8-.1 2.3-.1 3.5 0 2.2.1 4.5 0 6.7-.1 1.8-1.9 3.3-3.8 3.3-1.8 0-3.7-1.4-3.8-3.1-.2-4.1-.2-8.2-.2-12.4 0-.9.6-1.9 1.2-2.5 3.3-3.5 6.6-7 10.1-10.4.7-.7 1.9-1.2 3-1.3 2-.2 4-.1 6-.1 3.5 0 6.7 3 6.8 6.5.1 4.3.1 8.4.1 12.8zM54 42.4c1.4.1 2.7.1 4 .3 1.3.2 2.1 1.2 2.5 2.5 2.1 6.8 4.1 13.5 6.1 20.3.9 2.9 0 4.3-3 5.1-2.4.7-4.3-.4-5.1-2.9-.6-1.6-.7-3.2-.2-4.9 1.7-6.9.6-13.4-3.5-19.2-.2-.2-.3-.5-.5-.7-.1 0-.2-.1-.3-.5z"/>
</svg>
