<?xml version="1.0" encoding="utf-8"?>
<!-- Generator: Adobe Illustrator 25.3.1, SVG Export Plug-In . SVG Version: 6.00 Build 0)  -->
<svg version="1.1" id="Слой_1" xmlns="http://www.w3.org/2000/svg" xmlns:xlink="http://www.w3.org/1999/xlink" x="0px" y="0px"
	 viewBox="0 0 250.8 250.8" style="enable-background:new 0 0 250.8 250.8;" xml:space="preserve">
<style type="text/css">
	.st0{fill:#FFFFFF;}
</style>
<g>
	<g>
		<path class="st0" d="M125.8,12.3c-62.3,0-113,50.5-113,112.5s50.7,112.6,113,112.6s113-50.5,113-112.5S188.1,12.3,125.8,12.3z
			 M125.8,233.5c-60.1,0-109.1-48.7-109.1-108.6S65.6,16.2,125.8,16.2c60.1,0,109.1,48.7,109.1,108.6S185.9,233.5,125.8,233.5z"/>
		<path class="st0" d="M136.3,122.2c4,3.6,5.6,7.8,5.6,13.2c0,6.2-2.3,11.1-5.1,14c-2.3,2.4-6.8,5.8-14.7,5.8c-4.6,0-9.2-1-14-3.6
			c-4.3-2.3-7.4-5.2-10-8.6l-6.2,16.1c3.5,3.3,7.8,6.3,11.7,8.2c7.4,3.6,15.6,4,20.8,4c10.3,0,18.8-2.2,26.4-9.8
			c6.6-6.6,9.8-14.7,9.8-25c0-5.8-0.9-15.2-8.5-23c-5.5-5.6-14.6-9.6-24.8-9.6c-2.5,0-4.6,0.3-6.5,0.6l3.5-15.1h32.1V73.1h-44.5
			l-11.5,50.4c7.2-4.3,14-6.2,20.8-6.2C125.9,117.3,131.3,117.9,136.3,122.2z"/>
	</g>
	<path class="st0" d="M125.4,250.8C56.3,250.8,0,194.5,0,125.4S56.3,0,125.4,0s125.4,56.3,125.4,125.4S194.5,250.8,125.4,250.8z
		 M125.4,7C60.1,7,7,60.1,7,125.4s53.1,118.4,118.4,118.4s118.4-53.1,118.4-118.4S190.7,7,125.4,7z"/>
</g>
<g>
	<path class="st0" d="M60.5,85.6L58.8,88l-23.1-3.8l4-5.3l12.9,2.7l-6.3-11.7l1.6-2.2l13,2.6l-6.3-11.6l4-5.3l10.3,21l-1.7,2.3
		L54,73.8L60.5,85.6z"/>
	<path class="st0" d="M79.3,41l5.1-3.1l10.7,17.8L90,58.7l-1.4-2.3c-0.3,3.7-2.5,5.4-3.8,6.2C79.2,66,73,64,69.8,58.7
		c-3.2-5.3-2.1-11.6,3.3-14.9c1.4-0.8,4.2-2.2,7.5-0.6L79.3,41z M75.1,55.6c1.7,2.8,5.1,3.8,8.1,2s3.7-5.2,2-8.1s-5.1-3.8-8-2
		S73.4,52.7,75.1,55.6z"/>
	<path class="st0" d="M93,34.9l5.7-1.6l0.8,3c0.4-2,1.4-3.1,1.8-3.5c0.7-0.8,1.8-1.4,3.1-1.8c1-0.3,1.8-0.3,2.6-0.2l0.7,5.5
		c-0.9-0.3-1.7-0.3-2.9,0c-1.1,0.3-2.6,1-3.3,2.7c-0.7,1.6-0.3,3.4,0.1,4.8l2.7,9.6l-5.7,1.6L93,34.9z"/>
	<path class="st0" d="M112.7,30.2l5.9-0.4l0.2,3.1c0.8-1.8,2-2.8,2.4-3.1c0.9-0.6,2-1.1,3.4-1.2c1-0.1,1.9,0.1,2.6,0.3l-0.4,5.5
		c-0.8-0.5-1.6-0.7-2.8-0.6c-1.1,0.1-2.8,0.4-3.8,1.9c-1,1.5-1,3.2-0.9,4.7l0.7,10l-5.9,0.4L112.7,30.2z"/>
	<path class="st0" d="M149,32.3l5.8,1.1l-3.9,20.4l-5.8-1.1l0.5-2.6c-2.7,2.6-5.5,2.4-7,2.1c-6.4-1.2-9.6-6.9-8.5-12.9
		c1.2-6,6.2-10,12.4-8.9c1.6,0.3,4.6,1.2,6,4.6L149,32.3z M136.1,40.4c-0.6,3.3,1.3,6.3,4.6,6.9s6.2-1.4,6.9-4.7
		c0.6-3.3-1.3-6.2-4.6-6.9S136.8,37.1,136.1,40.4z"/>
	<path class="st0" d="M164.1,36.9l5.2,2.9l-1.3,2.3c1.7-0.8,4.4-1.4,7.3,0.2c1.6,0.9,3.7,2.7,4.2,5.3c0.4,2.3-0.4,4.2-1.4,5.9
		L171.8,65l-5.2-2.9l5.5-9.9c0.6-1,1.4-2.6,1-4.1c-0.3-1.3-1.4-2-1.9-2.3c-1.4-0.8-2.7-0.9-4.1-0.2c-1.4,0.7-2.2,2-2.8,3.1l-5.2,9.3
		l-5.2-2.9L164.1,36.9z"/>
	<path class="st0" d="M189.5,60.2l-10.6,11.7l-4.4-4l10.6-11.7l-1.7-1.6l3.4-3.7l1.7,1.6l4.8-5.2l4.4,4l-4.8,5.2l3,2.8l-3.4,3.7
		L189.5,60.2z"/>
	<path class="st0" d="M190.4,80.5l9.3-18.1l3.8,5.8l-6.3,11.9l13.1-1.6l3.7,5.6l-35.9,3.2l-3.7-5.6L190.4,80.5z"/>
</g>
<path class="st0" d="M117.7,206.3c-0.7,1.6-3.1,6.8-10.8,6.8c-3.5,0-6.2-1-8.4-3.1c-2.4-2.3-3.4-5.1-3.4-8.5c0-4.3,1.8-7,3.3-8.6
	c2.6-2.5,5.6-3.1,8.2-3.1c4.4,0,7,1.8,8.5,3.6c2.3,2.8,2.6,6.2,2.6,8.6v0.5h-16.4c0,1.3,0.4,2.7,1.1,3.7c0.7,0.9,2,2.1,4.4,2.1
	c2.3,0,4.1-1.1,5.1-2.9L117.7,206.3z M112.1,198.6c-0.5-3-2.9-4.4-5.2-4.4s-4.6,1.5-5.2,4.4H112.1z"/>
<path class="st0" d="M138.6,190.5h6.2v21.9h-6.2v-2.8c-2.2,3.2-5.2,3.5-6.7,3.5c-6.7,0-11.2-5.3-11.2-11.7c0-6.5,4.4-11.6,10.9-11.6
	c1.7,0,4.9,0.3,7,3.5V190.5z M127.1,201.5c0,3.5,2.5,6.2,6.1,6.2s6.1-2.7,6.1-6.2c0-3.5-2.5-6.2-6.1-6.2S127.1,198,127.1,201.5z"/>
<path class="st0" d="M149.4,190.5h6.2v3.3c1-1.9,2.3-2.8,2.7-3c1-0.6,2.2-1,3.6-1c1.1,0,1.9,0.3,2.6,0.5l-0.8,5.8
	c-0.8-0.6-1.6-0.8-2.9-0.8c-1.2,0-2.9,0.3-4.1,1.8c-1.2,1.5-1.2,3.3-1.2,4.8v10.5h-6.2V190.5z"/>
<path class="st0" d="M177.7,195.7c-1.5-1.4-2.9-1.5-3.6-1.5c-1.5,0-2.4,0.7-2.4,1.8c0,0.6,0.3,1.4,2,2l1.5,0.5
	c1.7,0.6,4.3,1.4,5.6,3.1c0.7,0.9,1.1,2.2,1.1,3.6c0,2-0.7,3.9-2.4,5.6c-1.8,1.6-3.9,2.3-6.6,2.3c-4.5,0-7.1-2.2-8.5-3.6l3.2-3.7
	c1.2,1.4,3,2.5,4.8,2.5c1.7,0,3-0.9,3-2.4c0-1.4-1.1-1.9-1.9-2.2l-1.4-0.5c-1.6-0.6-3.4-1.3-4.7-2.6c-1-1.1-1.7-2.4-1.7-4.2
	c0-2.1,1-3.9,2.3-4.9c1.7-1.4,3.9-1.6,5.7-1.6c1.6,0,4.2,0.2,7,2.3L177.7,195.7z"/>
<polygon class="st0" points="74.9,215.9 81.7,215.9 95.1,190.5 88.1,190.5 82,203 75.3,190.5 68.1,190.5 78.5,209.1 "/>
</svg>
