<svg xmlns="http://www.w3.org/2000/svg" width="79" height="81" fill="none" viewBox="0 0 79 81">
	<path fill="#fff" d="M27.8 7.5c0 4.1-3.3 7.4-7.3 7.4-4.2 0-7.5-3.4-7.4-7.6 0-4.1 3.4-7.2 7.5-7.2s7.3 3.3 7.2 7.4zM28.4 29.3c2.4 6.9 5.3 15.6 7.8 22.5.8 2.3-.4 3.8-3.2 3.9h-2c-1-.1-1.3.2-1.2 1.1.1 6.2.2 12.4.3 18.7 0 .7 0 1.4-.2 2.1-.6 1.7-2.6 2.8-4.5 2.6-2.4-.3-3.6-1.6-3.7-3.5l-.3-19.6c0-.2.1-.3 0-.5-.1-.3-1.5-.3-1.6 0-.1.4 0 .8 0 1.2 0 6.1.1 12.2.1 18.3 0 2.3-1.3 3.9-3.7 4-2.6.1-4.6-1.4-4.7-3.7-.1-4.7-.1-9.4-.2-14.1v-6.6h-3c-2.9 0-4.1-1.4-3.3-3.8 2.7-7.7 5.2-15 7.9-22.7.1-.2-.3-.6-.7.1C10.7 33.5 9 37 7.5 41.2c-.6 1.8-2.3 2.6-4.3 2.1-1.7-.4-2.7-1.9-2.1-3.6C2.9 34.3 4.8 29 7.5 24.1c2.5-4.4 5.9-8.9 12.3-8.9 6 0 10.5 2.3 14.9 10.8 1.3 3.4 3.9 9.3 5.1 12.7.3.8.4 1.6.2 2.4-.3 1.4-1.8 2.2-3.5 2.2-2 0-2.7-1.4-2.9-1.9-1.4-3.8-3.2-8.4-4.6-12.2-.3-.7-.9-.8-.6.1z"/>
	<path fill="#fff" d="M36.2 37.4c1.5-.6 2.9 0 4.4.9 5 3.2 10.5 5.1 16.5 4.9 7-.3 12.5-2.8 14.9-10 .7-1.9 2.4-2.7 4.2-2.1 1.8.6 2.8 2.3 2.2 4.3-1.8 5.9-5.6 10-11.1 12.4-1.1.5-1.3 1-1.3 2.1.1 8.5.1 17 0 25.5 0 1.2-.4 2.4-1 3.4-.8 1.3-2.2 1.5-3.6.9-1.4-.5-2.2-1.6-2.2-3.1 0-4.3 0-8.5-.1-12.8v-1c0-.3-.2-.5-.5-.5h-.9c-.4 0-.6.2-.6.5v8.5c0 1.5-.1 3 0 4.5.2 2.5-1.8 4.1-3.4 4.1-2.1 0-3.5-1.6-3.5-4 0-8.3-.1-16.6 0-24.9 0-1.2-.2-1.8-1.6-2.1-4.3-.9-8.2-2.7-11.9-5-2.4-1.5-3.5-2.8-2.6-4.8.3-.5.8-1.2 2.1-1.7z"/>
	<path fill="#fff" d="M65 34.2c0 3.8-3 6.8-6.8 6.8s-6.8-3-6.8-6.8 3.1-6.9 6.8-6.9c3.8 0 6.8 3.1 6.8 6.9z"/>
</svg>
