<svg xmlns="http://www.w3.org/2000/svg" width="55" height="50" fill="none" viewBox="0 0 55 50">
	<path fill="#B3B3B3" d="M55 12.1H0v37.8h55V12.1z"/>
	<path fill="#fff" fill-rule="evenodd" d="M9.9 24c0-1.9.8-3.6 1.9-4.7 1.7-1.7 3.9-1.9 5.6-1.9 1.9 0 3.6.3 5.3 1.9 1.4 1.4 1.9 3.1 1.9 5 0 1.1-.3 2.2-.8 3.1-.8 1.1-1.7 1.7-2.2 2.2 1.1.6 1.9 1.4 2.2 1.9.8 1.1 1.1 2.5 1.1 3.9 0 2.5-.8 4.4-2.2 5.6-1.7 1.7-3.9 1.9-5.8 1.9s-4.2-.3-5.6-1.9c-1.1-1.1-1.9-3.1-2.2-5h3.6c.3 1.1.8 1.9 1.4 2.5.6.6 1.4 1.4 3.1 1.4 1.1 0 2.2-.6 2.8-1.1.8-.8 1.4-1.9 1.4-3.6 0-.8-.3-1.9-1.1-2.8-1.3-1.1-2.7-1.4-3.5-1.4H16v-3.1h.6c1.7 0 2.8-.6 3.1-1.1.8-.6 1.1-1.7 1.1-2.5 0-1.4-.6-2.2-1.1-2.8-.8-.8-1.7-.8-2.5-.8s-1.9.3-2.8 1.1c-.8.8-1.1 2.2-1.1 2.2H9.9zM31 24c0-1.9.8-3.6 1.9-4.7 1.7-1.7 3.9-1.9 5.6-1.9 1.9 0 3.6.3 5.3 1.9 1.4 1.4 1.9 3.1 1.9 5 0 1.1-.3 2.2-.8 3.1-.8 1.1-1.7 1.7-2.2 2.2 1.1.6 1.9 1.4 2.2 1.9.8 1.1 1.1 2.5 1.1 3.9 0 2.5-.8 4.4-2.2 5.6-1.7 1.7-3.9 1.9-5.8 1.9s-4.2-.3-5.6-1.9c-1.1-1.1-1.9-3.1-2.2-5h3.6c.3 1.1.8 1.9 1.4 2.5.6.6 1.4 1.4 3.1 1.4 1.1 0 2.2-.6 2.8-1.1.8-.8 1.4-1.9 1.4-3.6 0-.8-.3-1.9-1.1-2.8-1.1-1.1-2.5-1.4-3.3-1.4h-.8v-3.1h.6c1.7 0 2.8-.6 3.1-1.1.8-.6 1.1-1.7 1.1-2.5 0-1.4-.6-2.2-1.1-2.8-.8-.8-1.7-.8-2.5-.8s-1.9.3-2.8 1.1c-.8.8-1.1 2.2-1.1 2.2H31zM8.9 9.3h-.8c-.3 0-.9-.3-.9-.5V.7c0-.3.6-.6.8-.6h.8c.3 0 .6.3.6.6v8.1c0 .2-.2.5-.5.5z" clip-rule="evenodd"/>
	<path fill="#fff" fill-rule="evenodd" d="M48.9 5.7v3.9c0 .3-.3.6-.6.6h-3.1c-.6 0-.8-.3-.8-.6V5.7H10.6v3.9c0 .3-.3.6-.6.6H6.9c-.3 0-.6-.3-.6-.6V5.7h-3C1.4 5.7 0 7.4 0 9v3.1h55V9c0-1.7-1.4-3.3-3.1-3.3h-3z" clip-rule="evenodd"/>
	<path fill="#fff" fill-rule="evenodd" d="M47.2 9.3h-.8c-.6 0-.8-.3-.8-.6v-8c0-.3.3-.6.8-.6h.8c.3 0 .6.3.6.6v8.1c0 .2-.3.5-.6.5z" clip-rule="evenodd"/>
</svg>
