<svg width="40" height="40" viewBox="0 0 40 40" fill="none" xmlns="http://www.w3.org/2000/svg">
<g clip-path="url(#clip0_1405_17)">
<path d="M7.5074e-05 19.9999C7.5074e-05 9.09995 8.60007 0.499947 19.0001 -5.33126e-05C30.8001 -0.500053 39.6001 8.69995 40.0001 19.0999C40.5001 30.8999 31.2001 39.5999 20.9001 39.9999C9.10007 40.4999 -0.0999249 30.9999 7.5074e-05 19.9999ZM38.0001 20.0999C38.0001 10.3999 30.5001 2.19995 20.4001 1.99995C10.5001 1.69995 2.10008 9.59995 2.00008 19.8999C1.90008 29.4999 9.50007 37.8999 19.9001 37.9999C29.5001 38.0999 37.9001 30.4999 38.0001 20.0999Z" fill="#003067"/>
<path d="M16.8 21.2C15.9 21.2 15 21.2 14.2 21.2C13.5 21.2 13.5 21.2 13.5 20.5C13.5 19.2 13.5 17.8 13.5 16.5C13.5 16 13.7 15.9 14.1 15.9C15 15.9 15.9 15.9 16.8 15.9C16.8 15 16.7 14.1 16.8 13.3C16.9 12.4 17 11.6 17.3 10.7C17.8 9.19995 19.1 8.39995 20.6 8.29995C22.4 8.19995 24.1 8.19995 25.9 8.19995C26.2 8.19995 26.4 8.29995 26.4 8.59995C26.4 10.1 26.4 11.5 26.4 13C26.4 13.4 26.1 13.4 25.9 13.4C24.6 13.4 23.4 13.4 22.1 13.4C21.9 13.4 21.7 13.4 21.5 13.4C21.5 14.2 21.5 15 21.5 15.9C21.9 15.9 22.4 15.9 22.8 15.9C23.8 15.9 24.8 15.9 25.9 15.9C26.3 15.9 26.5 16 26.5 16.5C26.5 17.9 26.5 19.3 26.5 20.7C26.5 21.2 26.3 21.3 25.9 21.3C24.8 21.3 23.6 21.3 22.5 21.3C22.3 21.3 22.1 21.3 21.9 21.3C21.9 21.5 21.9 21.6 21.9 21.8C21.9 24.9 21.9 28.1 21.9 31.2C21.9 31.7 21.8 31.7999 21.3 31.7999C20 31.7999 18.7 31.7999 17.5 31.7999C17.1 31.7999 16.9 31.6999 16.9 31.2999C16.9 28.1999 16.9 25.2 16.9 22.1C16.8 21.8 16.8 21.5 16.8 21.2Z" fill="#003067"/>
</g>
<defs>
<clipPath id="clip0_1405_17">
<rect width="40" height="40" fill="white"/>
</clipPath>
</defs>
</svg>
