<svg xmlns="http://www.w3.org/2000/svg" width="40" height="40" fill="none" viewBox="0 0 40 40">
	<g clip-path="url(#soc-1-dribbble-a)">
		<path fill="#003067" fill-rule="evenodd" d="M36.326 31.524C38.664 28.184 40 24.26 40 20 40 9.73 32.234 1.211 22.297.125h-.084c-.25 0-.585-.083-.919-.083H18.54c-.25 0-.501 0-.752.083h-.25c-.334 0-.585.084-.919.168h-.167a13.7 13.7 0 0 1-.919.25C6.681 2.547 0 10.48 0 20 0 31.023 8.935 39.96 20.042 39.96h1.002c.334 0 .668-.084.918-.084 2.923-.334 5.762-1.17 8.184-2.672.084-.084.167-.084.334-.167.167-.084.334-.25.501-.334.167-.084.334-.25.501-.334a.18.18 0 0 1 .167-.167c1.754-1.17 3.173-2.673 4.343-4.343l.334-.334zm-6.68 3.591c-.168.084-.251.167-.418.25-.251.084-.418.168-.669.251 0 0-.083 0-.083.084-2.255 1.252-4.76 2.004-7.516 2.17V27.517c4.76.167 9.02 1.67 12.443 4.175-1.002 1.253-2.171 2.255-3.507 3.174-.084.167-.167.167-.25.25zM2.087 21.17h16.868v4.26c-5.094.25-9.937 1.92-13.695 4.76-1.837-2.506-2.923-5.68-3.173-9.02zM5.26 9.73c3.758 2.84 8.601 4.593 13.695 4.676v4.76H2.088c.167-3.507 1.252-6.68 3.173-9.436zm12.86-7.6c.167 0 .418-.083.668-.083h.167v10.439c-4.593-.167-8.935-1.754-12.359-4.26a17.661 17.661 0 0 1 11.44-6.095h.084zm19.791 17.036H21.044V14.49a23.481 23.481 0 0 0 13.778-4.76c1.838 2.756 2.923 5.929 3.09 9.436zM21.044 2.046c4.76.25 9.186 2.505 12.359 6.18a22.23 22.23 0 0 1-12.36 4.259V2.046zm-2.088 35.825c-4.676-.334-9.102-2.505-12.275-6.096 3.34-2.505 7.682-4.009 12.275-4.176v10.272zm2.088-12.443V21.17h16.868c-.25 3.257-1.336 6.43-3.09 8.936-3.84-2.84-8.684-4.426-13.778-4.677z" clip-rule="evenodd"/>
	</g>
	<defs>
		<clipPath id="soc-1-dribbble-a">
			<path fill="#fff" d="M0 0h40v40H0z"/>
		</clipPath>
	</defs>
</svg>
