<svg width="48" height="40" viewBox="0 0 48 40" fill="none" xmlns="http://www.w3.org/2000/svg">
<g clip-path="url(#clip0)">
<path d="M46.56 1.12C46 0.4 45.12 0 44.16 0C43.6 0 43.04 0.08 42.48 0.32L2.4 15.6C0.24 16.4 0 17.6 0 18.24C0 18.88 0.4 20.08 2.56 20.8L10.88 23.2L15.36 36C16 37.76 17.36 38.8 18.96 38.8C20 38.8 20.96 38.4 21.84 37.6L26.96 32.88L34.4 38.88L34.48 38.96C35.28 39.6 36.24 39.92 37.12 39.92C38.88 39.92 40.24 38.64 40.64 36.64L47.2 4.4C47.44 3.04 47.2 1.92 46.56 1.12ZM13.68 22.8L29.68 14.64L19.68 25.2C19.52 25.36 19.44 25.6 19.36 25.84L17.44 33.6L13.68 22.8ZM19.92 35.6C19.84 35.68 19.76 35.68 19.76 35.76L21.52 28.56L24.8 31.2L19.92 35.6ZM44.48 3.84L37.92 36.24C37.84 36.56 37.68 37.28 37.12 37.28C36.88 37.28 36.56 37.12 36.24 36.88L27.84 30.08L22.8 26L37.2 10.64C37.68 10.16 37.68 9.36 37.28 8.88C36.88 8.32 36.16 8.16 35.52 8.48L11.84 20.64L3.44 18.24L43.44 2.96C43.76 2.8 44 2.8 44.16 2.8C44.24 2.8 44.4 2.8 44.48 2.88C44.48 2.96 44.56 3.28 44.48 3.84Z" fill="#003067"/>
</g>
<defs>
<clipPath id="clip0">
<rect width="47.2" height="40" fill="white"/>
</clipPath>
</defs>
</svg>
